<svg width="182" height="182" viewBox="0 0 182 182" fill="none" xmlns="http://www.w3.org/2000/svg">
<g clip-path="url(#clip0_1937_26331)">
<rect width="181.624" height="181.624" rx="90.8122" fill="#A9EFFF"/>
<path d="M94.5959 56.7575L83.2444 70.0009L87.0282 85.1363L109.731 92.704L128.651 85.1363L126.759 75.6767L124.867 66.2171L111.623 56.7575H94.5959Z" fill="white"/>
<path d="M140.002 52.9736L143.786 58.6494L149.462 77.5686V79.4605H141.894L136.218 71.8928L130.542 64.3252V52.9736H140.002Z" fill="white"/>
<path fill-rule="evenodd" clip-rule="evenodd" d="M156.54 82.1856C149.313 82.1856 136.751 84.6528 131.801 88.0857C131.02 88.6274 130.252 89.3715 130.428 89.8284C134.982 101.629 144.141 101.107 151.512 100.682L151.752 100.669C156.904 100.376 160.404 95.461 161.842 91.3361C163.091 87.7529 162.974 84.3655 161.562 83.0993C160.853 82.4663 159.006 82.1856 156.54 82.1856Z" fill="#1B3E61"/>
<path fill-rule="evenodd" clip-rule="evenodd" d="M115.54 76.8547C115.708 73.4596 113.354 70.5836 110.283 70.4307C107.211 70.2779 104.585 72.9061 104.417 76.301C104.249 79.696 106.603 82.5721 109.675 82.7249C112.746 82.8778 115.372 80.2496 115.54 76.8547Z" fill="#1B3E61"/>
<path fill-rule="evenodd" clip-rule="evenodd" d="M28.8641 45.149C18.8894 67.9698 43.0687 87.6955 50.4027 93.008C48.7306 112.778 52.9498 137.903 58.7674 155.091C58.7674 155.091 50.4735 160.638 42.0711 167.808C56.2919 176.571 73.0277 181.624 90.94 181.624C119.223 181.624 144.573 169.026 161.72 149.117C158.434 146.975 153.831 145.375 147.648 146.064C146.8 146.159 145.827 146.293 144.761 146.445L144.099 146.539C134.197 147.949 117.234 150.365 114.986 137.704C113.814 131.095 113.203 125.511 112.893 121.181C114.829 121.127 116.832 121.051 118.903 120.95L126.579 121.577C128.609 121.714 130.645 121.831 132.694 121.936C155.527 123.071 159.531 107.367 160.081 99.2216C157.969 101.443 155.223 103.09 151.899 103.279L151.723 103.289C150.924 105.912 149.013 108.238 146.68 109.659C140.409 113.458 132.407 113.099 125.837 110.416C122.565 109.039 119.54 107.009 117.322 104.314C123.046 107.949 129.578 109.894 136.265 109.849C141.835 109.815 147.849 108.128 150.894 103.336C149.739 103.401 148.503 103.462 147.228 103.462C140.398 103.462 132.26 101.824 127.999 90.7741C127.55 89.6124 127.589 87.8371 130.321 85.9379C134.478 83.0539 144.111 80.5205 152.016 79.8081C151.397 77.0259 150.703 74.4398 149.947 72.0357C149.653 71.1018 149.35 70.1953 149.038 69.3155C148.208 66.9705 147.316 64.8151 146.379 62.8339C146.301 62.6704 146.224 62.5081 146.146 62.347C145.92 61.8811 145.693 61.4251 145.462 60.9788C145.264 60.5949 145.065 60.2183 144.863 59.8486C143.729 57.7663 142.544 55.9059 141.332 54.2438C131.436 40.683 119.672 40.3208 118.429 40.3208C118.358 40.3208 118.317 40.3063 118.317 40.3063C114.453 33.9558 105.899 29.3022 101.059 27.0636C98.7562 25.9997 96.0305 26.4305 94.1765 28.1665C88.9203 33.0747 85.9278 40.0256 85.9278 40.0256C85.9278 40.0256 74.7129 40.352 64.8054 46.4936C64.8054 46.4936 34.7318 31.7302 28.8641 45.149ZM144.716 71.4412C145.614 71.4858 146.47 71.2788 147.231 70.8766C148.552 74.7479 149.213 77.6046 149.213 77.6046L142.177 77.6684C136.596 75.7626 127.449 56.7112 133.89 54.094C138.816 52.4198 140.703 56.2636 142.601 60.1298L142.749 60.4297C141.07 61.3311 139.868 63.1877 139.76 65.3851C139.601 68.5856 141.821 71.297 144.716 71.4412ZM57.611 55.2108C53.1939 53.3637 46.0837 50.8444 40.5933 50.5703H40.5478C38.5767 50.4789 36.8463 52.0779 36.5796 54.2383C36.1047 58.0956 36.9699 64.0545 43.4361 72.0692C45.5959 74.7452 47.9507 77.1079 50.1039 79.0463C50.1352 77.136 50.2291 74.9305 50.524 72.5672C45.9107 70.4846 43.7595 66.7863 43.1288 63.603C43.1288 63.603 45.8546 66.2071 50.4927 66.775C48.1638 65.659 46.2969 63.9946 45.0349 61.6124C42.9077 57.5984 45.926 54.3612 45.9781 54.544C47.0536 58.1636 50.6021 60.6673 53.3157 62.1068C54.3669 59.7408 55.7613 57.4048 57.611 55.2108ZM122.855 84.2141C107.269 93.2862 94.577 89.331 83.5507 71.3369C83.5507 71.3369 91.1423 57.6569 103.073 58.3487C120.357 59.3473 122.855 84.2141 122.855 84.2141Z" fill="#1B3E61"/>
</g>
<defs>
<clipPath id="clip0_1937_26331">
<rect width="181.624" height="181.624" rx="90.8122" fill="white"/>
</clipPath>
</defs>
</svg>
